HIERARCHY
ROOT Hips
{
	OFFSET 0.000000 0.000000 0.000000
	CHANNELS 6 Xposition Yposition Zposition Zrotation Yrotation Xrotation 
	JOINT LHipJoint
	{
		OFFSET 0.000000 0.000000 0.000000
		CHANNELS 3 Zrotation Yrotation Xrotation
		JOINT LeftUpLeg
		{
			OFFSET 1.363060 -1.794630 0.839290
			CHANNELS 3 Zrotation Yrotation Xrotation
			JOINT LeftLeg
			{
				OFFSET 2.448110 -6.726130 0.000000
				CHANNELS 3 Zrotation Yrotation Xrotation
				JOINT LeftFoot
				{
					OFFSET 2.562200 -7.039590 0.000000
					CHANNELS 3 Zrotation Yrotation Xrotation
					JOINT LeftToeBase
					{
						OFFSET 0.157640 -0.433110 2.322550
						CHANNELS 3 Zrotation Yrotation Xrotation
						End Site
						{
							OFFSET 0.000000 0.000000 0.000000
						}
					}
				}
			}
		}
	}
	JOINT RHipJoint
	{
		OFFSET 0.000000 0.000000 0.000000
		CHANNELS 3 Zrotation Yrotation Xrotation
		JOINT RightUpLeg
		{
			OFFSET -1.305520 -1.794630 0.839290
			CHANNELS 3 Zrotation Yrotation Xrotation
			JOINT RightLeg
			{
				OFFSET -2.542530 -6.985550 0.000000
				CHANNELS 3 Zrotation Yrotation Xrotation
				JOINT RightFoot
				{
					OFFSET -2.568260 -7.056230 0.000000
					CHANNELS 3 Zrotation Yrotation Xrotation
					JOINT RightToeBase
					{
						OFFSET -0.164730 -0.452590 2.363150
						CHANNELS 3 Zrotation Yrotation Xrotation
						End Site
						{
							OFFSET 0.000000 0.000000 0.000000
						}
					}
				}
			}
		}
	}
	JOINT LowerBack
	{
		OFFSET 0.000000 0.000000 0.000000
		CHANNELS 3 Zrotation Yrotation Xrotation
		JOINT Spine
		{
			OFFSET 0.028270 2.035590 -0.193380
			CHANNELS 3 Zrotation Yrotation Xrotation
			JOINT Spine1
			{
				OFFSET 0.056720 2.048850 -0.042750
				CHANNELS 3 Zrotation Yrotation Xrotation
				JOINT Neck
				{
					OFFSET 0.000000 0.000000 0.000000
					CHANNELS 3 Zrotation Yrotation Xrotation
					JOINT Neck1
					{
						OFFSET -0.054170 1.746240 0.172020
						CHANNELS 3 Zrotation Yrotation Xrotation
						JOINT Head
						{
							OFFSET 0.104070 1.761360 -0.123970
							CHANNELS 3 Zrotation Yrotation Xrotation
							End Site
							{
								OFFSET 0.000000 0.000000 0.000000
							}
						}
					}
				}
				JOINT LeftShoulder
				{
					OFFSET 0.000000 0.000000 0.000000
					CHANNELS 3 Zrotation Yrotation Xrotation
					JOINT LeftArm
					{
						OFFSET 3.362410 1.200890 -0.311210
						CHANNELS 3 Zrotation Yrotation Xrotation
						JOINT LeftForeArm
						{
							OFFSET 4.983000 -0.000000 -0.000000
							CHANNELS 3 Zrotation Yrotation Xrotation
							JOINT LeftHand
							{
								OFFSET 3.483560 -0.000000 -0.000000
								CHANNELS 3 Zrotation Yrotation Xrotation
								JOINT LeftFingerBase
								{
									OFFSET 0.000000 0.000000 0.000000
									CHANNELS 3 Zrotation Yrotation Xrotation
									JOINT LeftHandIndex1
									{
										OFFSET 0.715260 -0.000000 -0.000000
										CHANNELS 3 Zrotation Yrotation Xrotation
										End Site
										{
											OFFSET 0.000000 0.000000 0.000000
										}
									}
								}
								JOINT LThumb
								{
									OFFSET 0.000000 0.000000 0.000000
									CHANNELS 3 Zrotation Yrotation Xrotation
									End Site
									{
										OFFSET 0.000000 0.000000 0.000000
									}
								}
							}
						}
					}
				}
				JOINT RightShoulder
				{
					OFFSET 0.000000 0.000000 0.000000
					CHANNELS 3 Zrotation Yrotation Xrotation
					JOINT RightArm
					{
						OFFSET -3.136600 1.374050 -0.404650
						CHANNELS 3 Zrotation Yrotation Xrotation
						JOINT RightForeArm
						{
							OFFSET -5.241900 -0.000000 -0.000000
							CHANNELS 3 Zrotation Yrotation Xrotation
							JOINT RightHand
							{
								OFFSET -3.444170 -0.000000 -0.000000
								CHANNELS 3 Zrotation Yrotation Xrotation
								JOINT RightFingerBase
								{
									OFFSET 0.000000 0.000000 0.000000
									CHANNELS 3 Zrotation Yrotation Xrotation
									JOINT RightHandIndex1
									{
										OFFSET -0.622530 -0.000000 -0.000000
										CHANNELS 3 Zrotation Yrotation Xrotation
										End Site
										{
											OFFSET 0.000000 0.000000 0.000000
										}
									}
								}
								JOINT RThumb
								{
									OFFSET 0.000000 0.000000 0.000000
									CHANNELS 3 Zrotation Yrotation Xrotation
									End Site
									{
										OFFSET 0.000000 0.000000 0.000000
									}
								}
							}
						}
					}
				}
			}
		}
	}
}
MOTION
Frames: 12
Frame Time: 0.008333
3.228604 16.381330 -0.760909 -114.801467 84.471894 -99.670476 16.681713 3.757685 -3.735025 -34.565074 -11.818979 -8.921321 1.879092 7.863160 20.039497 -2.705526 19.306132 27.769686 0.281700 -3.413800 -9.433100 -23.861991 -4.822214 -4.498832 51.884599 18.998703 2.453553 -2.044804 -3.577585 10.815553 -3.632249 -10.795789 -32.090736 -0.479300 4.439800 -12.317300 0.079936 2.238356 -0.848043 -4.636921 1.100270 -11.859208 1.105741 1.180348 9.342523 -7.793428 -11.765049 -25.654908 5.820143 41.136968 8.692968 178.148000 27.688100 26.122000 5.571903 -7.807706 4.848449 -52.343435 -12.510224 -40.993357 131.511010 -45.487562 -63.862137 -6.870492 2.996209 -6.070450 -8.438632 26.144222 -0.688300 -7.125000 0.000000 0.000000 -30.271900 50.195500 -4.217100 -0.688092 8.902177 4.966222 52.937885 -28.850789 95.979670 -98.402009 48.645246 -63.575848 -2.165046 -0.007928 11.689284 -53.081796 -0.002159 -0.898800 7.125000 0.000000 0.000000 -18.736800 -28.576200 -7.883700 
3.228959 16.380354 -0.760021 -115.466366 84.439433 -100.324219 16.677037 3.731979 -3.744662 -34.544586 -11.849044 -8.932678 1.882751 7.867074 20.054576 -2.718719 19.328817 27.744720 0.287600 -3.448700 -9.530600 -23.865537 -4.852914 -4.482479 51.889291 18.971213 2.439524 -2.039764 -3.571140 10.786759 -3.631094 -10.854340 -32.080245 -0.480700 4.446000 -12.334900 0.119797 2.221263 -0.869016 -4.599703 1.083480 -11.873428 1.099344 1.166907 9.355934 -7.764099 -11.782426 -25.679064 5.819503 41.165492 8.690256 178.216000 27.765600 26.165200 5.572109 -7.825200 4.846363 -52.348367 -12.409522 -41.007281 131.478316 -45.498107 -63.793865 -6.881944 2.978005 -6.155255 -8.476505 26.106912 -0.699600 -7.125000 0.000000 0.000000 -30.282500 50.165700 -4.195100 -0.689361 8.912795 4.970596 52.962813 -28.879209 95.931854 -98.454002 48.632102 -63.631652 -2.165010 -0.000619 11.700989 -53.138136 0.011635 -0.905000 7.125000 0.000000 0.000000 -18.776400 -28.568300 -7.905900 
3.229314 16.379643 -0.758335 -115.828713 84.424948 -100.657322 16.675965 3.719834 -3.751757 -34.526530 -11.863433 -8.980821 1.888422 7.881204 20.087132 -2.734901 19.361743 27.718512 0.285900 -3.438800 -9.502900 -23.871639 -4.870885 -4.460279 51.882662 18.996478 2.382442 -2.039204 -3.580096 10.798408 -3.621833 -10.880581 -32.006628 -0.511400 4.583800 -12.725100 0.165819 2.237136 -0.910081 -4.596610 1.100512 -11.868900 1.066315 1.175547 9.375573 -7.687968 -11.829814 -25.711691 5.806831 41.000571 8.666269 178.261000 27.595700 26.139100 5.567182 -7.828931 4.848108 -52.327512 -12.434015 -41.049119 131.470280 -45.521582 -63.735103 -6.884070 2.945874 -6.184253 -8.542814 25.952886 -0.721400 -7.125000 0.000000 0.000000 -30.267400 50.046900 -4.097900 -0.688101 8.916166 4.972727 53.044316 -28.907407 95.845229 -98.430114 48.626675 -63.607469 -2.167462 0.003220 11.784029 -53.163209 -0.038206 -0.840800 7.125000 0.000000 0.000000 -18.808300 -28.646200 -7.883800 
3.229669 16.379022 -0.758424 -116.567889 84.447020 -101.363041 16.671477 3.687641 -3.771469 -34.559465 -11.927919 -8.985733 1.888039 7.886944 20.092151 -2.740588 19.393428 27.734035 0.290100 -3.463600 -9.572100 -23.881312 -4.910138 -4.426067 51.835662 19.047172 2.278466 -2.053525 -3.629407 10.919453 -3.624357 -10.860688 -32.039143 -0.513100 4.591500 -12.747000 0.201051 2.250568 -0.827873 -4.624002 1.113585 -11.993936 1.045331 1.188470 9.268168 -7.675881 -11.851814 -25.660841 5.827614 41.113359 8.695182 178.279000 27.724300 26.202500 5.550785 -7.834468 4.854143 -52.378054 -12.437267 -40.942974 131.463830 -45.533495 -63.732233 -6.871350 2.938081 -6.242653 -8.513288 25.899204 -0.714800 -7.125000 0.000000 0.000000 -30.223600 50.001400 -4.054600 -0.669683 8.920871 4.966023 53.059527 -29.113061 95.855821 -98.470473 48.603133 -63.650852 -2.162474 0.006762 11.933188 -53.132031 -0.107417 -0.751500 7.125000 0.000000 0.000000 -18.809900 -28.755200 -7.832800 
3.230734 16.378933 -0.757891 -117.607684 84.410964 -102.393125 16.655783 3.647155 -3.805254 -34.541018 -11.933078 -8.961028 1.888781 7.879337 20.079980 -2.771852 19.432066 27.660319 0.294100 -3.487100 -9.638000 -23.888437 -4.968970 -4.383147 51.841011 19.062800 2.185800 -2.060394 -3.686549 11.062766 -3.631849 -10.863336 -32.117439 -0.514900 4.599400 -12.769300 0.270555 2.229062 -0.701950 -4.622678 1.086302 -12.153124 1.030356 1.179561 9.117532 -7.728171 -11.851626 -25.541915 5.859379 41.300323 8.744132 178.282000 27.969000 26.274400 5.534123 -7.851483 4.855912 -52.462181 -12.283576 -40.795470 131.485217 -45.504904 -63.801624 -6.855537 2.939859 -6.256732 -8.510007 25.884397 -0.719800 -7.125000 0.000000 0.000000 -30.225600 49.983300 -4.040600 -0.650515 8.927398 4.954592 53.048312 -29.338953 95.920950 -98.506011 48.583600 -63.692605 -2.159115 0.002222 11.958422 -53.044884 -0.173799 -0.671500 7.125000 0.000000 0.000000 -18.767000 -28.853700 -7.766400 
3.232598 16.378312 -0.756915 -118.257426 84.443378 -103.033564 16.649246 3.622520 -3.822087 -34.590367 -11.944773 -8.925874 1.886819 7.872167 20.053032 -2.796439 19.493395 27.658628 0.295700 -3.496600 -9.664700 -23.892203 -5.000351 -4.357268 51.793803 19.085225 2.130980 -2.073918 -3.722680 11.157441 -3.638759 -10.844447 -32.179940 -0.520000 4.621700 -12.832800 0.250021 2.219955 -0.730288 -4.611317 1.081814 -12.159623 1.055998 1.169454 9.136292 -7.761747 -11.867783 -25.568264 5.845984 41.254169 8.729558 178.321000 28.028900 26.270100 5.534248 -7.871090 4.855453 -52.518128 -12.223997 -40.776354 131.492640 -45.484667 -63.845524 -6.833309 2.964051 -6.211445 -8.378450 25.903827 -0.676900 -7.125000 0.000000 0.000000 -30.124100 49.997100 -4.035600 -0.643675 8.936211 4.955857 53.049761 -29.391133 95.896237 -98.543648 48.569836 -63.731446 -2.163261 -0.003498 11.958362 -53.011441 -0.315030 -0.501000 7.125000 0.000000 0.000000 -18.780000 -29.062100 -7.673500 
3.232775 16.377957 -0.755228 -118.317520 84.488974 -103.076446 16.653466 3.622395 -3.821284 -34.632878 -11.937441 -8.934904 1.879751 7.863278 20.025009 -2.782698 19.467619 27.675118 0.295100 -3.492900 -9.654100 -23.893667 -4.997605 -4.351726 51.753481 19.108175 2.115696 -2.080326 -3.720700 11.148120 -3.642395 -10.834876 -32.211520 -0.510600 4.580500 -12.715900 0.211489 2.225816 -0.813483 -4.584457 1.096786 -12.109569 1.081465 1.168644 9.222687 -7.729340 -11.867475 -25.679304 5.833698 41.199372 8.702588 178.325000 28.047100 26.264700 5.536366 -7.885373 4.847995 -52.552808 -12.259618 -40.900866 131.468995 -45.520863 -63.752835 -6.820969 2.942489 -6.036928 -8.400956 25.687469 -0.681200 -7.125000 0.000000 0.000000 -30.042800 49.840200 -3.898500 -0.649238 8.951380 4.970063 53.055002 -29.344482 95.827210 -98.550058 48.563459 -63.728170 -2.162889 0.000646 12.028525 -53.044808 -0.319751 -0.492800 7.125000 0.000000 0.000000 -18.806900 -29.071600 -7.681200 
3.231621 16.377602 -0.753187 -117.647872 84.479079 -102.387707 16.662480 3.644097 -3.823980 -34.594001 -11.938407 -8.925663 1.866237 7.838346 19.957719 -2.734551 19.371791 27.723637 0.289900 -3.462800 -9.569900 -23.894602 -4.972457 -4.350817 51.790151 19.180406 2.061493 -2.079157 -3.746078 11.212594 -3.643620 -10.827446 -32.238800 -0.501200 4.538600 -12.597100 0.287391 2.259369 -0.652732 -4.585900 1.130668 -12.294574 1.033937 1.206277 9.054761 -7.654712 -11.875425 -25.628448 5.867801 41.186541 8.727238 178.269000 28.042200 26.270400 5.512039 -7.889144 4.858773 -52.567572 -12.167030 -40.790168 131.454765 -45.531396 -63.720057 -6.810389 2.925750 -5.894367 -8.492630 25.534023 -0.713600 -7.125000 0.000000 0.000000 -30.058100 49.723200 -3.808000 -0.640853 8.973863 4.971246 53.103330 -29.520644 95.891709 -98.503869 48.553053 -63.690478 -2.157105 0.003605 12.101090 -53.009087 -0.256038 -0.570800 7.125000 0.000000 0.000000 -18.766000 -28.977000 -7.707600 
3.232598 16.378845 -0.752566 -118.068474 84.476841 -102.812602 16.654424 3.628743 -3.842900 -34.600686 -11.896358 -8.883505 1.851177 7.803899 19.889138 -2.694534 19.256442 27.711975 0.286200 -3.440400 -9.507400 -23.897185 -4.996267 -4.333617 51.795391 19.188018 2.030955 -2.085292 -3.776816 11.298554 -3.645997 -10.767728 -32.266629 -0.494800 4.509900 -12.515800 0.329374 2.230907 -0.551903 -4.558542 1.099192 -12.404105 1.012083 1.193222 8.959928 -7.571927 -11.891396 -25.603541 5.863349 41.080286 8.719826 178.274000 27.808400 26.237200 5.496581 -7.907157 4.862513 -52.602150 -12.018203 -40.750835 131.466081 -45.502709 -63.778070 -6.807541 2.928634 -5.926715 -8.506869 25.565641 -0.721800 -7.125000 0.000000 0.000000 -30.090400 49.742900 -3.828500 -0.645062 8.990375 4.979989 53.072490 -29.560618 95.982847 -98.478076 48.554236 -63.674316 -2.151183 -0.003634 12.006393 -52.877863 -0.181961 -0.665900 7.125000 0.000000 0.000000 -18.650400 -28.862500 -7.708900 
3.232775 16.379643 -0.752211 -119.211937 84.561594 -103.980912 16.642805 3.586278 -3.855975 -34.714120 -11.891312 -8.815555 1.838816 7.779036 19.840232 -2.664998 19.197770 27.752037 0.278500 -3.394100 -9.378000 -23.901234 -5.043339 -4.304528 51.710992 19.170168 2.024831 -2.101212 -3.801373 11.373000 -3.648610 -10.791286 -32.271573 -0.512500 4.588900 -12.739600 0.216068 2.182605 -0.756237 -4.511289 1.059872 -12.182923 1.068173 1.141229 9.215945 -7.508697 -11.864082 -25.852414 5.820497 41.003787 8.654750 178.278000 27.694700 26.211200 5.514650 -7.926056 4.853140 -52.588359 -12.174646 -41.082262 131.486850 -45.503316 -63.794027 -6.833738 2.906582 -5.902701 -8.659656 25.583686 -0.770600 -7.125000 0.000000 0.000000 -30.229400 49.766600 -3.868300 -0.668534 8.996154 5.007793 53.049560 -29.271830 95.863174 -98.475129 48.564143 -63.657332 -2.155190 -0.003696 11.881203 -52.912467 -0.113153 -0.748300 7.125000 0.000000 0.000000 -18.653300 -28.761400 -7.757800 
3.232332 16.379022 -0.751057 -120.088197 84.606433 -104.861397 16.633142 3.553586 -3.870697 -34.774666 -11.888957 -8.780333 1.829267 7.759872 19.799532 -2.639946 19.150915 27.786177 0.276700 -3.383300 -9.347800 -23.907353 -5.083292 -4.266142 51.646922 19.194478 1.964927 -2.115783 -3.839601 11.474355 -3.651345 -10.810853 -32.293169 -0.516400 4.606000 -12.788200 0.158299 2.160944 -0.919148 -4.482788 1.045111 -12.010602 1.094082 1.112546 9.425391 -7.465552 -11.837502 -26.076247 5.800465 41.003785 8.611740 178.268000 27.754300 26.221500 5.534281 -7.933625 4.853692 -52.523066 -12.368450 -41.335104 131.473856 -45.521016 -63.757545 -6.868047 2.896646 -5.902172 -8.777957 25.674992 -0.805700 -7.125000 0.000000 0.000000 -30.365500 49.847000 -3.953300 -0.683329 8.999316 5.028084 53.056738 -29.079364 95.731671 -98.509330 48.560732 -63.686656 -2.157024 -0.002808 11.920941 -52.891567 -0.193074 -0.646400 7.125000 0.000000 0.000000 -18.660200 -28.886300 -7.702200 
3.232332 16.378578 -0.750081 -120.523956 84.582707 -105.250399 16.628613 3.539807 -3.890391 -34.759395 -11.878373 -8.815846 1.826215 7.753234 19.775643 -2.679716 19.185113 27.663677 0.285100 -3.434200 -9.489900 -23.915934 -5.110658 -4.221007 51.632064 19.272209 1.831455 -2.125417 -3.890069 11.591398 -3.656166 -10.784826 -32.359611 -0.505800 4.559200 -12.655500 0.213028 2.152400 -0.926955 -4.455388 1.034484 -12.060641 1.077778 1.107470 9.427657 -7.429018 -11.843016 -26.128885 5.803498 41.126147 8.614881 178.344000 27.932000 26.304800 5.528830 -7.941620 4.866801 -52.517704 -12.379165 -41.286145 131.484288 -45.493552 -63.832234 -6.866563 2.919556 -5.925031 -8.746752 25.807517 -0.798500 -7.125000 0.000000 0.000000 -30.403800 49.944900 -4.037800 -0.679955 9.014799 5.034237 53.022657 -29.149870 95.756747 -98.606597 48.535873 -63.795448 -2.157210 -0.001353 12.032740 -52.915821 -0.367152 -0.428600 7.125000 0.000000 0.000000 -18.729900 -29.152100 -7.608300 
